{"title":"The Ring(2002)MPEG-4[DaScubaDude]","uid":14543500,"size":1151977046,"categoryP":"video","categoryS":"movies","magnet":"?xt=urn:btih:f74cc6d200de2716ab76a6616495f373d6da86f9&amp;dn=The+Ring%282002%29MPEG-4%5BDaScubaDude%5D&amp;tr=udp%3A%2F%2Ftracker.leechers-paradise.org%3A6969&amp;tr=udp%3A%2F%2Fzer0day.ch%3A1337&amp;tr=udp%3A%2F%2Fopen.demonii.com%3A1337&amp;tr=udp%3A%2F%2Ftracker.coppersurfer.tk%3A6969&amp;tr=udp%3A%2F%2Fexodus.desync.com%3A6969","seeders":0,"leechers":0,"uploader":"dascuba","files":1,"time":1462549278,"description":"The Ring (2002)\r\nPG-13 | 1h 55min | Horror, Mystery | 18 October 2002 (USA)\r\nA journalist must investigate a mysterious videotape which seems to cause the death of anyone in a week of viewing it.\r\nDirector: Gore Verbinski\r\nWriters: Ehren Kruger (screenplay), Kôji Suzuki (novel) (as Koji Suzuki)\r\nStars: Naomi Watts, Martin Henderson, Brian Cox |\r\n\r\nGeneral\r\nComplete name                            : TheRingTHE_RING_Title1.mp4\r\nFormat                                   : MPEG-4\r\nFormat profile                           : Base Media\r\nCodec ID                                 : isom (isom/iso2/avc1/mp41)\r\nFile size                                : 1.07 GiB\r\nDuration                                 : 1h 55mn\r\nOverall bit rate mode                    : Variable\r\nOverall bit rate                         : 1 334 Kbps\r\nMovie name                               : THE_RING\r\nGenre                                    : Horror\r\nWriting application                      : Lavf54.6.100\r\n\r\nVideo\r\nID                                       : 1\r\nFormat                                   : AVC\r\nFormat/Info                              : Advanced Video Codec\r\nFormat profile                           :   \r\nFormat settings, CABAC                   : No\r\nFormat settings, ReFrames                : 6 frames\r\nCodec ID                                 : avc1\r\nCodec ID/Info                            : Advanced Video Coding\r\nDuration                                 : 1h 55mn\r\nBit rate                                 : 1 199 Kbps\r\nWidth                                    : 720 pixels\r\nHeight                                   : 404 pixels\r\nDisplay aspect ratio                     : 16:9\r\nFrame rate mode                          : Constant\r\nFrame rate                               : 29.970 (30000/1001) fps\r\nColor space                              : YUV\r\nChroma subsampling                       : 4:2:0\r\nBit depth                                : 8 bits\r\nScan type                                : Progressive\r\nBits/(Pixel*Frame)                       : 0.138\r\nStream size                              : 988 MiB (90%)\r\n\r\nAudio\r\nID                                       : 2\r\nFormat                                   : AAC\r\nFormat/Info                              : Advanced Audio Codec\r\nFormat profile                           : LC\r\nCodec ID                                 : 40\r\nDuration                                 : 1h 55mn\r\nBit rate mode                            : Variable\r\nBit rate                                 : 128 Kbps\r\nMaximum bit rate                         : 131 Kbps\r\nChannel(s)                               : 2 channels\r\nChannel positions                        : Front: L R\r\nSampling rate                            : 44.1 KHz\r\nFrame rate                               : 43.066 fps (1024 spf)\r\nCompression mode                         : Lossy\r\nStream size                              : 105 MiB (10%)\r\nDefault                                  : Yes\r\nAlternate group                          : 1","torrent":{"xt":"urn:btih:f74cc6d200de2716ab76a6616495f373d6da86f9","amp;dn":"The+Ring%282002%29MPEG-4%5BDaScubaDude%5D","amp;tr":["udp%3A%2F%2Ftracker.leechers-paradise.org%3A6969","udp%3A%2F%2Fzer0day.ch%3A1337","udp%3A%2F%2Fopen.demonii.com%3A1337","udp%3A%2F%2Ftracker.coppersurfer.tk%3A6969","udp%3A%2F%2Fexodus.desync.com%3A6969"],"infoHash":"f74cc6d200de2716ab76a6616495f373d6da86f9","infoHashBuffer":{"type":"Buffer","data":[247,76,198,210,0,222,39,22,171,118,166,97,100,149,243,115,214,218,134,249]},"announce":[],"urlList":[]}}